<svg width="61" height="49" viewBox="0 0 61 49" fill="none" xmlns="http://www.w3.org/2000/svg">
<path d="M32.7841 1.02913C32.4429 1.35419 32.1723 1.74044 31.9876 2.16575C31.8029 2.59105 31.7078 3.04704 31.7078 3.50755C31.7078 3.96806 31.8029 4.42404 31.9876 4.84934C32.1723 5.27465 32.4429 5.66091 32.7841 5.98597L48.4854 20.9994L3.65928 20.9994C2.68878 20.9994 1.75803 21.368 1.07178 22.0242C0.385532 22.6804 0 23.5704 0 24.4983C0 25.4263 0.385532 26.3163 1.07178 26.9725C1.75803 27.6287 2.68878 27.9973 3.65928 27.9973L48.4854 27.9973L32.7841 43.0166C32.0966 43.6739 31.7104 44.5654 31.7104 45.495C31.7104 46.4246 32.0966 47.3161 32.7841 47.9734C33.4715 48.6307 34.4039 49 35.3761 49C36.3483 49 37.2806 48.6307 37.9681 47.9734L59.9237 26.9797C60.2649 26.6546 60.5355 26.2684 60.7202 25.8431C60.9049 25.4178 61 24.9618 61 24.5013C61 24.0408 60.9049 23.5848 60.7202 23.1595C60.5355 22.7342 60.2649 22.3479 59.9237 22.0228L37.9681 1.02913C37.6281 0.70293 37.2241 0.444111 36.7793 0.267513C36.3346 0.0909119 35.8577 3.8147e-06 35.3761 3.8147e-06C34.8945 3.8147e-06 34.4176 0.0909119 33.9728 0.267513C33.528 0.444111 33.124 0.70293 32.7841 1.02913Z" fill="#CDCDCD"/>
</svg>
