<svg width="51" height="39" viewBox="0 0 51 39" fill="none" xmlns="http://www.w3.org/2000/svg">
<path d="M2.53125 2.65625H9.90625L15.4375 28.6875H44.9375M15.4375 22.5625H44.1816C44.3948 22.5626 44.6014 22.5014 44.7664 22.3892C44.9313 22.277 45.0443 22.1208 45.0862 21.9471L48.4049 8.16588C48.4317 8.05475 48.4284 7.94008 48.3954 7.83012C48.3623 7.72017 48.3003 7.61768 48.2137 7.53006C48.1272 7.44244 48.0183 7.37186 47.8949 7.32343C47.7715 7.275 47.6368 7.24992 47.5003 7.25H11.75M19.125 34.8125C19.125 35.6582 18.2995 36.3438 17.2812 36.3438C16.263 36.3438 15.4375 35.6582 15.4375 34.8125C15.4375 33.9668 16.263 33.2812 17.2812 33.2812C18.2995 33.2812 19.125 33.9668 19.125 34.8125ZM44.9375 34.8125C44.9375 35.6582 44.112 36.3438 43.0938 36.3438C42.0755 36.3438 41.25 35.6582 41.25 34.8125C41.25 33.9668 42.0755 33.2812 43.0938 33.2812C44.112 33.2812 44.9375 33.9668 44.9375 34.8125Z" stroke="white" stroke-width="3.5" stroke-linecap="round" stroke-linejoin="round"/>
</svg>
