<svg width="39" height="39" viewBox="0 0 39 39" fill="none" xmlns="http://www.w3.org/2000/svg">
<path d="M27.8731 24.5283H26.1115L25.4871 23.9262C27.7479 21.304 28.9905 17.9563 28.988 14.494C28.988 11.6274 28.1379 8.82509 26.5453 6.44157C24.9527 4.05804 22.689 2.20031 20.0406 1.1033C17.3922 0.00628002 14.4779 -0.280749 11.6664 0.278505C8.8548 0.837759 6.27222 2.21818 4.2452 4.2452C2.21818 6.27222 0.837759 8.8548 0.278505 11.6664C-0.280749 14.4779 0.00628002 17.3922 1.1033 20.0406C2.20031 22.689 4.05804 24.9527 6.44157 26.5453C8.82509 28.1379 11.6274 28.988 14.494 28.988C18.0841 28.988 21.3842 27.6724 23.9262 25.4871L24.5283 26.1115V27.8731L35.6775 39L39 35.6775L27.8731 24.5283ZM14.494 24.5283C8.94169 24.5283 4.4597 20.0463 4.4597 14.494C4.4597 8.94169 8.94169 4.4597 14.494 4.4597C20.0463 4.4597 24.5283 8.94169 24.5283 14.494C24.5283 20.0463 20.0463 24.5283 14.494 24.5283Z" fill="white"/>
</svg>
