<svg width="41" height="39" viewBox="0 0 41 39" fill="none" xmlns="http://www.w3.org/2000/svg">
<path d="M40.7676 36.6269C37.7684 31.4979 33.1465 27.8202 27.7528 26.0768C30.4208 24.5057 32.4936 22.1117 33.6531 19.2624C34.8125 16.4132 34.9943 13.2662 34.1707 10.3049C33.347 7.34348 31.5634 4.73142 29.0938 2.86982C26.6241 1.00822 23.605 0 20.5 0C17.395 0 14.3759 1.00822 11.9062 2.86982C9.43658 4.73142 7.65298 7.34348 6.82933 10.3049C6.00568 13.2662 6.18752 16.4132 7.34694 19.2624C8.50635 22.1117 10.5792 24.5057 13.2472 26.0768C7.85346 27.8182 3.23162 31.496 0.232444 36.6269C0.122459 36.8043 0.0495063 37.0017 0.017891 37.2074C-0.0137242 37.4132 -0.00336205 37.6231 0.0483661 37.8248C0.100094 38.0265 0.192141 38.2159 0.319075 38.3819C0.446008 38.5479 0.605258 38.687 0.787428 38.7911C0.969598 38.8952 1.171 38.9621 1.37975 38.9879C1.58849 39.0138 1.80036 38.998 2.00284 38.9415C2.20533 38.8851 2.39433 38.7891 2.5587 38.6592C2.72307 38.5293 2.85947 38.3682 2.95986 38.1853C6.66993 31.8427 13.2275 28.0559 20.5 28.0559C27.7725 28.0559 34.3301 31.8427 38.0401 38.1853C38.1405 38.3682 38.2769 38.5293 38.4413 38.6592C38.6057 38.7891 38.7947 38.8851 38.9972 38.9415C39.1996 38.998 39.4115 39.0138 39.6203 38.9879C39.829 38.9621 40.0304 38.8952 40.2126 38.7911C40.3947 38.687 40.554 38.5479 40.6809 38.3819C40.8079 38.2159 40.8999 38.0265 40.9516 37.8248C41.0034 37.6231 41.0137 37.4132 40.9821 37.2074C40.9505 37.0017 40.8775 36.8043 40.7676 36.6269ZM9.47218 14.0306C9.47218 11.8731 10.119 9.76403 11.3307 7.97013C12.5425 6.17622 14.2648 4.77804 16.2798 3.9524C18.2949 3.12675 20.5122 2.91073 22.6514 3.33164C24.7906 3.75255 26.7556 4.79149 28.2978 6.31708C29.8401 7.84267 30.8904 9.78639 31.3159 11.9024C31.7414 14.0185 31.523 16.2118 30.6884 18.2051C29.8537 20.1984 28.4402 21.9021 26.6267 23.1007C24.8132 24.2994 22.6811 24.9392 20.5 24.9392C17.5762 24.9361 14.7731 23.7858 12.7056 21.7407C10.6382 19.6956 9.47531 16.9228 9.47218 14.0306Z" fill="white"/>
</svg>
